<svg xmlns="http://www.w3.org/2000/svg" viewBox="0 0 512.96 150.1"><defs><style>.a{fill:#231916;}.b,.c{fill-rule:evenodd;}.c{stroke:#231916;stroke-width:0.77px;}</style></defs><path class="a" d="M505,50.16v1.27c-.28,2.88-3.05,3.66-6,3.44-.67.16-.78.72-1.45.61-.88,1.05-1,2.93-1.32,4.6.33.16.44.49.61.83-.34,4.48.6,7.75.49,12.08-.11.49.34.44.34.83-1.06,1.16-1.55,2.49-1.28,5.32.06.61.39,1.27.45,1.77,0,.17-.28.44-.23.61.06.33.39.55.45.83s-.17.22-.22.5.27.83.22,1.05c0,.44-.22,1-.22,1.28,0,.6.6.94.6,1.44,0,.66-.38.55-.72,1.16a7.2,7.2,0,0,1-.11,1c-.16.39-.55.77-.61,1-.33,1.44.84,3.27.72,4.6-.16,1.83-2.32,2.66-3.21,3.82.11.33.39.89.11,1.17-2-.23-3.6.38-5.43-.12v-.83c-1.16-.55-2-.38-3.21-.61-2.39-.38-2.94-3-5.54-3.21-1.56-1.39-2.61-3.27-4.77-4.1a6.88,6.88,0,0,0-1.22-2.38v-.45c1.66.39,4.27-.27,5,1.06,1.39-.11,2.66.77,3.88.94.72,0,1.56-.11,2.39,0a5.52,5.52,0,0,0,1.33.22c3.71-.33,3.87-6.65,3.65-10.08,1.66-2.55.89-7.21,1.17-11a3.57,3.57,0,0,0,.22-1c0-.78-.45-1.61-.45-2.39,0-1.77.39-3.71.45-5.54a6.8,6.8,0,0,1-.56-2.49c-1.22-1.72-2.32-.39-4.15,0-1.39.28-3.11.28-4.6.44-.94.17-1.83.72-2.6.89s-1.39-.11-1.94,0-1.22.89-1.89.55c-.44.06-.33.61-.72.72s-.66-.11-1.05-.11c-.06,0-.11.06-.17.06V56.64c.83-.39,1-.89,2.16-1.16.61-.17,1.06-1,1.83-1.22a35.27,35.27,0,0,0,6.82-2.5c.77-.33,1.33-1.22,2.05-1.49s1.66-.06,2-.94c.06-.67-.33-.89-.44-1.33.33-.61.94-1,1.16-1.67,0-.77-.66-.88-.72-1.66s.61-1.22.5-2c-.22-1.22-2-1.72-2.38-2.83-.17-.55-.56-1.55-.61-1.94-.28-2.44,1.72-3.32,2.05-5.65,1.05-.78,2.77-2,4.6-1.55.72.16,1,1.22,1.88,1.05a3.93,3.93,0,0,0,2,2.27c.45.94-.27,1.61-.39,2.39-.16,1.27,1.11,2.6,0,3.76.72.83.28,2.83,1.44,3.22-.16.88.34,1.22.61,1.77a5.28,5.28,0,0,1,1.78.83,5.54,5.54,0,0,1,.11,1c.66.78,1.66.45,2.49.72,1.11.39,1.72,1.78,2.61,2.39ZM473.4,85c1.28-1.66,2.72-3.21,4.1-4.77-.55-1.71.78-2,.56-3.71a2.11,2.11,0,0,0-1.39-.55,4.22,4.22,0,0,0-3.27-2.16V85Zm0-61.06V16.14c1.94-.17,3.66-1.5,5.77-1.17.38.06.77.45,1.27.56.22.05.55-.06.72,0a4.08,4.08,0,0,0,1.88.72,4.48,4.48,0,0,1,3.44,2.49c-1.22,1-1.66,2.72-3.33,3.32-.88-.27-1.27.06-2.1.12a2.16,2.16,0,0,0-.5.94c-.55.05-.61-.39-1.16-.33A13,13,0,0,1,473.4,24Zm0,64.22a2.8,2.8,0,0,0-.55-.61.92.92,0,0,0,.55.16v.45Zm0-28.26a6.65,6.65,0,0,0-1.27,1c-.39,0-.5.22-.94.11-1.28,1.44-3.72,1.66-4.82,3.21-2.66.22-3.16,2.61-6,2.61.22-1.28,1.55-1.45,2.21-2.28-.39-.66.11-1.33.39-1.77,2.16.33,2.33-1.33,3.77-1.77v-.94A16.13,16.13,0,0,0,470,58.52c.33-.22.56-.77.94-1.05a13.66,13.66,0,0,1,2.39-.83h0v3.27Zm0-43.77h-.55a3.7,3.7,0,0,1-1.5,1.27h-1.22c-.44,1.72-2.38,1.27-4.15,1.66-.56.17-.83.89-1.39.5a7.6,7.6,0,0,1-3.93,1.66,5.83,5.83,0,0,1-4.16,1.28c-.5.88-1.55.77-2.6,1.11-.33.05-.61.38-.94.44a13.83,13.83,0,0,1-1.44,0,14.58,14.58,0,0,0-2.72,1.05c-.88.33-1.83.22-2.33.61-2.38-.11-3.54,1-5.7,1.05-.39.12-.39.61-.83.61-1.83.5-4.05.45-5.93.95-.34.11-.5.33-.83.38-1.22.11-2.44-.49-3.55-.27-.44.11-.72.5-1.05.61a3.49,3.49,0,0,1-.72.05v1c1.55.23,2.71,1.83,4.26,2.11.61.11,1.28-.17,1.89-.11,2,.11,3.27,1.33,4.87,1.5,2.5.33,4.88-1,7-1.17,1.22-.66,2.11-1.94,4-1.55.17.61.78,1.11.72,1.77,0,.45-.49.67-.72,1.22-.11.28,0,.61-.11.83-.61,1.28-2.16,2.28-2.82,3.55-.22.33-.06.78-.22,1.16-.39.89-1.28,1.5-1.67,2.28-.11.16.06.6,0,.83-.33.83-1.49,1.16-1,2.49-.28.44-1.11.61-1.44,1-.17.22-.11.72-.22.94-.28.45-.89.61-1.11,1s-.11,1-.33,1.44-.72.55-.94.94-.23,1-.5,1.55c-.45.78-1.22,1.22-1.17,2.33A16.13,16.13,0,0,0,435,57.69a11.61,11.61,0,0,0-.83,4.05c.05,2,2.44,1,4.15.83,1-.56,1.67-1.39,3.11-1.55.61-.56.61-1.83,1.6-2,.56-2.27,2.55-3,4-4.26-.33-1.33,1.16-1.94,1.77-3.11.28-.44.11-1.22.5-1.77s.94-.5,1.38-.94c.34-.28.5-.89.84-1.28s.77-.38,1-.61.23-1,.56-1.44c.61-.77,1.49-1,1.66-1.66s-.11-1.5,0-2.1c.22-1.11,1.22-1.78,1-2.83,0-.5-.55-1-.66-1.55-.33-1.39-.11-3-.61-4.38-1.11-.83-2.44-1.33-2.5-3.21.89-1.28,3.49-.83,4.49-2a3.25,3.25,0,0,0,1.33-.27c.39-.17.5-.67.95-.84a9.67,9.67,0,0,0,4.59-1.16,21,21,0,0,1,2.5-.33c1.22-.44,1.22-1.44,2.6-1.44,1.55,0,3.27.11,4.93.11V16.14Zm0,57.68a15.45,15.45,0,0,0-7.75.72c-1.17.44-2.5.94-2.72,1.88.5.28.67.94,1.66,1.33,2.33.89,7-.66,5.88,2.72a1.58,1.58,0,0,1-1.06.33A7.62,7.62,0,0,1,468,83.07c-1.06,2.33-3,3.71-3.82,6.26,1,.89,1.82-.33,2.38-.94,1.94-.44,3.05-2.38,5.54-1.55.39-.61.83-1.22,1.27-1.83V73.82ZM427.86,61.9V53.15a2.37,2.37,0,0,1,.44.55c.06.83.39,2.22-.22,2.72.16.28.66.22.72.55a16.62,16.62,0,0,1-.94,4.93Zm43.71-57c.06,2.93-5.81,1.88-8.64,2.21-.61.5-1.22.23-2.16.28-1.5.06-3.21,1.11-4.38,1-1,0-1.83-.88-2.71-1.16s-1.94-.17-2.61-.5C450,6.22,450,4.5,448.47,4.28c.61-1-1.39-1.11-.83-2.49,3-.61,6.81.22,8.75-1.56,2,.45,4.38-.05,6.76-.22s6.1.56,7,2.05c.17.22.22.72.5,1.17.39.72.94,1.1.94,1.66ZM455.12,71c.66.89-.33,1.61-.5,2.49-.06.34.17.73.11,1.06-.06.61-.55,1.27-.72,2-.17,1,.22,2.27-.44,3.22.5.27.16,1,.33,1.77.11.5.61,1,.61,1.55a7.17,7.17,0,0,1-.39,1.16c-.33,1.67.11,4.71-2.44,4.66-1.16-.06-1.44-.94-2.49-1.22-.06-1.39-2-2.94-1.94-5,.06-.5.44-.94.5-1.49.05-.78-.17-1.61-.11-2.39.05-1.49-.39-3-.22-4,.05-.44.5-.67.55-1.05.33-1.22-.5-2.28-.55-3.33-.06-.39.16-.66.11-.94-.28-.89-2-1.83-.72-2.94-.28-.72-1.56-.88-1.56-1.55s1.33-1.27,2-1.22c1.38.17,2,2.11,2.77,2.61.11,1.82,1.39,2.54,2,3.93v1C453.23,71.49,453.84,70.44,455.12,71ZM427.86,29.1v1a3.49,3.49,0,0,0-.72,0c0-.22-.06-.39-.22-.44.11-.5.49-.56.94-.56Zm0,24V61.9c-.61,2-1.22,3.83-.83,6.1-1.83,1-.34,4.93-1.78,5.82a2.24,2.24,0,0,1-.5,1.55c-.16,1.72.34,2.93-.11,4.15-.16.45-.83.67-1.05,1.17a3.72,3.72,0,0,0,0,2.88c-.83.77-.5,2.05-1.55,2.55.66,1.22-.61,2.16-.72,3.32-1.61.5-2,2.33-3.77,2.61.39-2.17,1.5-2.94,1.66-5.32,1-.56.5-1.61.72-2.61.06-.39.5-.66.67-1.16s.11-.89.28-1.22.55-.72.72-1.16c.27-1.11-.23-2.16.55-2.83a1.24,1.24,0,0,0,1.44-.61c-.28-1.44-.83-2.66-.61-4.15s-.28-2.94,0-4.27c.11-.56.78-1.11.83-1.66a18.21,18.21,0,0,0-.11-2.94c-.11-.78-1.05-1.61-1.16-2.49a9.1,9.1,0,0,1,.11-1.67c-.06-1.21-.39-2.49-.39-3.43,0-1.66.22-2.66-.83-3.66.55-.83-.06-2.1-.44-2.71,1.22-1.5-.06-3.6-1.33-4,.33-.83-.12-2.44.49-3,.11,0,.11.06.11.17,3,2.71,5.93,5.48,7.49,9.69C427.75,53,427.8,53.09,427.86,53.15Z"/><path class="a" d="M411.34,93.26A7.14,7.14,0,0,1,407,93c-1.16.45-3,.28-3.65-.49-3,0-5.66-2-8.7-2.33-2-.17-3.88.44-4.55-1.5-4.1-1.27-5.65-5.1-8.86-7.31-1.05-1.83-2-3.77-3.27-5.6-.61-.89-1.55-1.49-2.11-2.33-.05-.11-.11-.16-.16-.27V53.59a9.78,9.78,0,0,0,.55-1.66c.28-1.55-.28-3.21.72-4.49,2.61-.5,4.27,1.89,5.65,3.66,1.06,1.33,2.66,2.88,1.94,5.37-.39,1.44-2.1,3.16-3.16,4.38-1.33,1.5-2.71,2.83-3.6,4.05a14.15,14.15,0,0,1-.11,2.21c1.5.56,1.89,2.22,2.83,3.44,2.21,2.71,5.87,4,8.2,6.7,3.16.78,4,3.83,7.15,4.66,3.76,5.15,11.58,6.31,15.45,11.35ZM372,41.63l3.69-2.94a6.15,6.15,0,0,1,.77-.45c.89-.44,1.89-.61,2.72-1,.33-.11,2-.55,2.3-.72a19.6,19.6,0,0,0,2.57-1.11c2-.83,3.85-3,5.07-4s1.69-.78,2.41-1.5c1.39-.16,2.39-.72,3.61-.39s1.73,1.69,3,2.33c-.11.67.45,1.33.22,2a18,18,0,0,1-2.54,2.43c-1.39.89-4.27,1.28-6.15,1.72a31.61,31.61,0,0,1-3.16.45c-1.06.16-1.53.18-2.53.41a24.19,24.19,0,0,0-2.51.69,16.51,16.51,0,0,1-2,.43c-.39,0-1.3.35-1.58.35a8.1,8.1,0,0,0-2.29.87l-2.86.51Zm3.69-14V10.71c3.43.33,7.64.55,8,3.43.22,1.72-1.27,2.66-2.21,3.71-1,2.22-2.61,4-3.72,6.21A18.87,18.87,0,0,1,375.72,27.61Zm0,45.6c-.45-.83-.94-2.27-1.94-2.44s-2.77,1.38-3.55,2.1c-1.05.95-1.94,2.33-2.82,2.94a6.81,6.81,0,0,1-1.11.45c-1.17.88-2.05,2-3.33,2.93a6.3,6.3,0,0,1-1.83,1.22c-.49.28-.72.67-1.6.5-.28,0,0,.66-.33.61-1.94,0-2.5,1.72-3.83,2.44a7.25,7.25,0,0,1-1.22.38c-.94.45-1.38,1.11-2.44,1.33V84c1.33-1.39,3.44-2.39,4.38-4.16.33.06.22.5.5.5A12,12,0,0,1,361.25,76c1.11-2.27,3.38-3.16,5.16-5.26.94-1,2.55-2.94,2.71-4.16.34-2.16-1.55-4.26-2.55-5.65a16.22,16.22,0,0,0-2.1-2.55A18.09,18.09,0,0,0,359.54,55c1.88-.33,3.77.5,5.32,1.27a40.91,40.91,0,0,1,4.65,2.27c1.05.72,1.61,2,3.32,1.72a10.51,10.51,0,0,0,1.84-4c.27-.88.71-1.77,1.05-2.66V73.21Zm0-62.5v16.9a4.52,4.52,0,0,1-.45.61c-2,2.49-3.87,5.2-6.37,7-1.33-.34-1.22-1.55-1.11-3.33,0-.66-.05-1.44,0-1.72.11-.44.67-1,.95-1.66.83-1.77,1.05-4.1,1.6-6.37.28-1.11,1.11-2.16,1.39-3.21.11-.45.11-1,.22-1.44.22-.72.72-1.33.88-1.94a12.34,12.34,0,0,0-.16-4c.5-.72,1.33-.22,1.88-.88a9.26,9.26,0,0,0,1.17.11Zm0,28v1.38c-1.11.39-1.89,1.61-3.05,2.11a14.32,14.32,0,0,1-1.44.22,27.37,27.37,0,0,1-3.44,1c-1.88.27-3.87.16-5.32,1.11-.61-.23-1.6-.06-2.16-.28-.33-1.61.89-2.22,1.44-3.27,1.06-.78,1.78.66,2.72.83.61.11,1.22-.39,2.21-.61s2-.22,2.72-.5,1.05-.88,1.55-1.11c.94-.33,1.83.06,3-.11a6.58,6.58,0,0,0,1.78-.77Zm-24,39.67A1.62,1.62,0,0,0,352.83,77a5.67,5.67,0,0,0-1.11-2.66Zm0,7.31c-.22,0-.44.06-.66.06v-.94a2.58,2.58,0,0,1,.66-.83v1.71Zm0-11.3v4a2.84,2.84,0,0,1-.66.22V73.82c.22.16.44.27.5.39s.11.05.16.16Zm-.66-16.29V44.56a5.49,5.49,0,0,1,.39,1.88,31,31,0,0,1-.33,3.44c-.23,2.22.38,4.77.11,6.82C351.17,57.19,351.12,57.64,351.06,58.08Zm0,27.65a1.09,1.09,0,0,1-.44-.06,2.6,2.6,0,0,1,.44-.88v.94Zm0-41.17V58.08a40.67,40.67,0,0,1-.83,4.49c-1.66.44-2.55-.89-3.82-.94-.45-1.39-2.16-1.61-1.94-3.33,1-.44,2.6-1.16,2.82-2.55.11-.66-.16-1.49-.11-2.1.11-3.83.39-8-.39-11.75,1.78-.66,3.49.78,4.27,2.66Zm0,29.26c-.28-.17-.61-.34-.83-.5-2.11-1.33-2.94.22-5.26,1.22A28.16,28.16,0,0,1,340.64,76c-1.82.39-5.21.39-6-1s.17-4.1.11-5.6c-.06-2-.28-3.88-.22-5.87.05-4.33-.11-8.37.33-12.36a2.4,2.4,0,0,1,0-2.44c-.77-.94-.22-2.33-.22-3.66s-.39-2.71-.5-4.15.22-3.16,0-4.43c-.28-1.78-2.05-3.55-.72-5.38,1.22-.66,2.77-.72,4.16-1.22.88-.33,1.55-1.11,2.43-1.33,1.06-.33,2.28-.22,3.11-.61,1-.5,1.44-1.6,2.54-1.82,1.45-.39,4.38.38,4.94-.89.33-.83-1-2.33-1.83-2.83s-2-.72-2.83-1.11c-1.6-.66-2.44-1.16-3.6-.72-.39.17-.83.12-1.33.28-.78.22-1.55.78-2.44,1.11s-1.88.5-2.82.83c-1.61.55-3,1.77-4.44,2.22-.88.27-2.05.44-3,.72a16,16,0,0,1-4.44.72c-2.77,0-5.2,1.72-8.2,1.11.06,1.27,1.28,1.6,2.33,1.6a2.84,2.84,0,0,0,.5,1.55,10.72,10.72,0,0,0,4.65,2.83c2.11.44,3.05-.22,4.27-.72,1.66.61,1.5,2.55,1.72,4.65a30.23,30.23,0,0,1,.5,3.55c.05,2.77-.83,5.6-.72,8.53.11,2.39-.61,4.77-.61,7.1,0,1.1.22,2.21.11,3.21-.06.72-.45,1.38-.5,2.05s.17,1.16.11,1.72a34.89,34.89,0,0,1-.72,3.76,7.57,7.57,0,0,0,.39,3.33c.05.5,0,1.16.11,1.72.22,1.22,1,2.21.83,3.32-.5,2.83-5.37,2-7.81,2.44-.78.11-1.28.55-2,.33-1-2.32.83-5,1.22-8,.28-1.72.11-3.49.39-5.27-.89-1.1-1.11-3.1-2.33-4.65-.39-.5-1.16-.78-1.6-1.22-1.17-1.27-1.94-3.16-3.5-1.94-.27,1.16.56,1.89.5,3.05-.05.66-.5,1.38-.5,2,0,.5.34.88.39,1.33a11,11,0,0,1-.61,3.54c-.22.89-.33,1.78-.5,2.61-.38,1.61-1.16,3-1.6,4.65s-.67,2.94-1.22,4.38a32.17,32.17,0,0,0-1.39,4.27c1.55,2.38,2.5,5.76,5.54,6.15,2.28.27,3-1.61,4.49-2.33.33-.17.78-.17,1.22-.39s.61-.5,1-.61,1.11,0,1.61-.22c1.55-.55,2.82-1.72,3.87-2,.78-.17,1.5-.06,2.11-.23,1.27-.38,2.49-1.27,4-1,2.33-1.33,6-1.33,9.09-2a11.52,11.52,0,0,1,1.72-.61c.44-.06.94.16,1.33.11,1.72-.11,3.1-1.11,5-.83.33-.45,1.16-.56,1.94-.78Z"/><path class="a" d="M196.77,77.12c.22,1.39-.77,2.22-.72,3.72-.5.11-.11-.61-.66-.45-.11.72.55.67.55,1.28-.11,3.16-.61,5.43-3.38,6.15-1.72.44-4.6-.44-6.37-.5-.39-.06-.61.11-.89.06-.94-.12-1.77-.5-2.6-.61a14.36,14.36,0,0,0-5.32.72c-.94.27-1.77.22-2.55.44-.44.16-1.11.66-1.61.66-1.38,0-2-2.1-2.55-3.43-.16-.5-.55-.89-.61-1.16a9.28,9.28,0,0,1,.34-4.77c.22-1,.55-1.66.83-2.94.39-2,1.72-3.65,2-5.09.17-.72-.05-1.61.11-2.33s.61-1.66.84-2.44c.27-.94.33-1.83.55-2.77.5-2.22,1.27-3.49,1.61-5.82.22-1.77,1.49-4,1.88-6,.28-1.39.94-4.66-.61-4.77-.78,0-.89.67-1.38,1.11-2.11.83-3.83,2.49-5.55,3.88A32.65,32.65,0,0,0,166.8,56c-1,1.22-1.56,2.83-3,3.61-1.38,1.88-2.77,3.87-4.32,5.7-.5.61-1.27,1.06-1.72,1.61s-.61,1.16-1,1.72c-.66.77-1.38,1.16-1.49,2.44-1.45.83-1.83,2.77-3.27,3.6,0,.44-.34.55-.34.94-1.71,1.27-2.43,3.38-3.82,5s-3.32,2.93-4.16,5.09c-3,1.83-4.59,6.15-8,7.21a3.4,3.4,0,0,1-2.11-.12c-.44-.11-.77-.49-1.27-.6-1.22-.39-1.66-.39-2.33-1.39A23.76,23.76,0,0,0,128,84.44c-.33-.67-1-1.33-1-1.94a9,9,0,0,1,.94-2.72c.83-1.1,2.55-1.21,3.6-2a3.57,3.57,0,0,0,3.11-1.55c-.06-1.94.22-3.77.11-5.43a5.13,5.13,0,0,1-.22-.94c.05-.89.77-1.72.33-2.66-.5-.5-1.66-.33-1.83-1.16a7.41,7.41,0,0,1-3.71-.34c-.28-.66-1.11-.72-1.61-1.16-.33-.28-.44-.83-.83-1.27s-.83-.45-1.05-.72c-.5-.61-.67-1.5-1.17-2.11s-1.22-1.16-1.71-1.83c-1.17-1.66-.56-4.15-2.33-5.32-.28-.66-.28-1.22-.5-1.77-.17-.33-.61-.39-.55-1.27,1.1.33,1.38,1.49,2.1,2.21.33.06.94-.11,1,.11a24.74,24.74,0,0,0,5.77,3.94c1.11,0,1.88.61,2.82.33.67-.22.5-.72.89-1.22.33-.33.83-.17.94-.61-.05-2.05.89-4,1.17-6,.05-.44-.06-.83,0-1.27s.27-.72.33-1.06a11.07,11.07,0,0,0-.33-2.54c-.12-.78.11-1.67,0-2.33-.17-1.33-.56-2.61-.84-4.27a21.28,21.28,0,0,0-1.82-4.87c2-.28,2.49.94,4.37.77a19,19,0,0,1,3.94,3.16,16,16,0,0,1,2.6,3.1c1.61,3.16,1.61,8.26,1,12.19-.06.39.33.39.28.83-.39.72-.17,1.33-.17,2.11-.11,1.66-.78,3.32-.89,4.88-.16,2.27.22,4.59-.72,6.48.5,1.88-.66,3.82-.11,5.37,1.83.56,2-1.38,3.38-1.66,1.72-2,4.1-3.55,6-5.54.67-.61,1.11-1.5,1.83-2,.5-.39,1.16-.5,1.66-.84,1.94-1.38,3-3.82,5.54-4.76V55.51C162.92,53.8,164.8,51.3,167,49c.72-.72,1.66-1.27,2.33-2.05,2.16-2.1,4.71-3.88,6.93-6.15,2.1.17,2.71-1.16,3.49-2.44,0-1.1-.28-2,.33-2.71-.67-1-.22-2.33-.33-3.49-.28-2.55-1.44-5.1-1.17-7.32.94-.94,2.55-1.22,3.6-2.05a5.53,5.53,0,0,0,3.27-.83c.83,1.11,1.33,4.1,1.72,5.82.17.72-.11,2.11.11,3,.17.56.89.89,1.16,1.39a3.75,3.75,0,0,1,1.78.61c1.33.72,2.66,1.38,3.32,2.66,2.16.11,1.44,3.49.5,4.65a6.43,6.43,0,0,1-2.44,1.72c-1.6.66-3.65.39-4.43,1.77-.44,1.28-.17,3.27-1.16,3.94.22,1.94-1.06,2.43-.83,4.32-.39.44-.5,1-.89,1.38-1.16,7.54-3.93,13.91-5.6,21.23,1.11,1.27,3.27,0,5.21-.23.83-.11,1.72.06,2.55-.11.55-.11,1.05-.55,1.66-.61a24.3,24.3,0,0,1,3.94.34,8.23,8.23,0,0,1,1.16-.11C194.11,73.91,196.61,75.85,196.77,77.12Z"/><path class="b" d="M257.42,20.48c3.57,2.56,7.91-.16,12.32-2.24,4.41-.58,8.89-4.7,12.72-2a57.13,57.13,0,0,0,9.24-1.38c3.52.13,6.59,1.43,6.51,5.67-.06,3-2,4.07-4.56,4.46s-5.75,1.7-8.32.55c-4.32-.84-8.71,0-13.14,3.66-4.42,1.87-8.88,0-13.34,2.78-.9.32-.81,4.21-.71,5,.09,1.83.18,4.67-.72,5,1.61-2.3,3.34-2.11,5.15-2,1.81-.7,3.69-1,5.6-1.7a7.57,7.57,0,0,1,5.77-1.13,15.2,15.2,0,0,1,5.66,2.66c-.21,2.48-.28,4.77-.35,7.07-.07,1.09-.12,4.52-.29,7.13-.33,4.18-1.1,13.58-3.29,13.4-2.2,3.14-5.81,8.24-11.81,4.6-1-4.58-2.24-3.39-3.39-4.12-1.14-1.6-2.24-1.31-3.05-4.46-1,2-1.17,4.69-1.06,9.61,0,1.65.11,3.18.19,5.74.08,2.26.18,3.31.27,4.52.09.34.18,2.42.24,3.75.07,1.78.11,2.62.11,3.79,0,1.37,0,2.18,0,2.83s-.06,1.11-.11,1.8c-.07,1.89-.16,3.13-.29,3-.13.82-.29.87-.49,2.22a4.68,4.68,0,0,1-1.69,3.07c-.74,0-1.68,1.82-2.85,2.65a21.47,21.47,0,0,0-1.76-4.84,20.5,20.5,0,0,0-1.1-3.28,9.89,9.89,0,0,0-.55-1.93c0-.77-.09-1-.1-2.15,0-.84,0-1.64,0-2.4,0,0,0-1.84.09-2.15a15.88,15.88,0,0,1,.16-2.22,18.54,18.54,0,0,1,.48-3.84,33.31,33.31,0,0,0,.61-4.23c.22-1.7.44-3.89.65-5.2.21-1.72.41-3.35.57-4.62.51-5.32.74-11.28.24-13.94-4,.06-6.16,5.7-8.46,8.89-2.3,6.77-4.77,8.24-9.43,9.71-.81-3.06-1.31-.7-1.56-4.35-.24,1.25-.23-5.77,0-5.88.21-3.43.61-3.45,1.15-6.62.54-4.43,1.21-3.75,2-6.62.74-4.83,1.57-.74,2.41-7,.84-4.57,1.7-5.32,2.51-3.2,1.23-1.58,2.92-.53,4.71-4.08,1.78-.37,3.67-1.72,5.31-2.36V29.79a23.4,23.4,0,0,0,12.35-1.18c3.54-1.94,6.53-5.18,9.12-6-4.31-.28-8.69,3.58-13,2.46s-8.67,5-12.85,5.11c-4.18,2.18-8.23,4.14-12,6-4,3.83-8,3.19-11,4.36-3.05.06-5.16-2-5.42-8.66,3.53.63,7.14-1.78,10.74-.72,3.61.15,7.2-2.81,10.69-4.12,3.49-1.89,6.88-4.79,10.06-4.46-1,1.27-3.18.91-4.3-2.15,2.13.87,2.34-4.2,1.73-7.94-.61-3-2-7.53-3.16-5.65,4.17-2,8.65-.37,11.73,1.69C257.19,14.06,258.87,13.74,257.42,20.48ZM251,47.68c.12-4.63.73-3,.82-7.28.1-5-.31-5.89-2.25-5.6-1.35,1.33-2.61,5.34-3.74,4.28-1.12.8-2.1,4.63-2.89,3.94-.78,3.82-1.38,2.56-1.72,6.28-.34.25-.44,5.37-.24,4.82,1.5-.24,3.2.36,4.92-3.31C247.61,48.05,249.37,47.59,251,47.68Zm5.72,2.86c0,2.6.45,6.81,0,9.3,2.42,3.18,4.56-1.77,6.38,1.53,1.81,2.31,3.28-1.3,4.33-2.69,1.06-1.68,1.7-5,1.85-5.51a24.72,24.72,0,0,0-1.11-6.93c-2.32-.19-4.45,1.24-6.36,1.52C259.88,48.32,258.18,50.35,256.7,50.54Z"/><path class="c" d="M41.94,9.34c.25,2.44,0,2.69-.56,5.34A17.58,17.58,0,0,1,39.3,18.5c-.77.5-1.52,2.47-2,3.92.39,1.14.86-.12,1.41,1,.55.6,1.17-.25,1.83-.22.67.43,1.39-.07,2.13-.95S44.19,21.75,45,21c.77-.31,1.54-1,2.28-.74a1.62,1.62,0,0,0,2.15-.5,1.94,1.94,0,0,1,1.87.63,6.87,6.87,0,0,1,1.46,2.78c-1.05.32-2.37,2.94-3.84,3.13a9.6,9.6,0,0,1-4.79,1.78A39.84,39.84,0,0,1,39,29c-1.68.18-3.29.29-4.74.38A18.84,18.84,0,0,0,34.72,25a31.08,31.08,0,0,0-.43-4.85c-.29-.36-.73-3.83-1.29-4.84A22,22,0,0,0,30.91,11,6.91,6.91,0,0,0,28.09,7.8a4.31,4.31,0,0,1,2.84-2.94c1.15-1.53,2.46.21,3.8.49,1.34-.33,2.7.85,4,2.11S41.06,8.53,41.94,9.34Z"/><path class="c" d="M109.66,35.51v3.07c-1.25.67-2.55,1.3-3.87,1.9s-2.68,1.17-4,1.74c-1.36,1.44-2.73.94-4.1,1.66-1.37-.25-2.74,2.08-4.09,1.69a4.27,4.27,0,0,0-4,1.79c-1.29-.26-2.56,2-3.77,2,.92.53,1.73,2.88,2.44,3.55a6.55,6.55,0,0,1,1,1.69c.3.76.58,1.9.83,2.71A11.75,11.75,0,0,1,90.74,60c.21,2.19.39-.43.55,2.41.11,1.47.21,2.7.3,1.81a8.84,8.84,0,0,0,.24,1.89c.07-.78.14,1.64.19,1.6.06-1.44.1,2.78.14,2.28,0,.37.07,1.28.09,2,0,2.29,0-.16,0,2,0,3,0,1.63,0,2.14,0-1.68,0,.75,0,2,0,3-.06.24-.1,2.7A27.51,27.51,0,0,0,92,83.6c0,.53-.07-.54-.11,1.62,0,2.39-.07-.76-.12,1.61a9.91,9.91,0,0,1-.27,2.22A12.15,12.15,0,0,1,91.34,91c0,2.68-.11,1.89-.16,1.35s-.24.88-.36,2c-.13,2.28-.26,2.72-.4,2.88-.14.71-.28,1.29-.42,2.09-.59,3.18-1.23,6.09-1.88,8.57-5.29-.1-6-4.75-7.7-8.47a3.68,3.68,0,0,0,2.51-.18A1.37,1.37,0,0,1,85,98.61c-.11-1.32-.2-2.81-.29-4.42-.08-.48-.15-2-.22-4.77a18,18,0,0,1-.08-2.56c0,.49-.06-.23-.08-2.46,0-1.72,0-2.09,0-2.14,0-1.49,0-1.66,0-1.06s0-2,0-2c0-1.26,0-1.12,0-2.85,0-2.12,0,.82,0-2.32,0-.88,0-3,0-3.82,0-2.51,0-2.74,0-3.73,0,.33,0-4.61,0-3.58,0-.6,0-2.72,0-3.39,0-.83,0-1.64,0-2.43s0-1.54,0-2.26c0-1.36,0-3.55,0-4-1.22.37-2.52,0-3.83,0-3.93.08-8,.32-10.79-.74-.37,1.66-.65,3.51-.89,5.48-.24,2.58-.42,4.48-.61,6.17-.18,2.13-.36,5-.58,6.4-.21,2.75-.46,3.73-.79,6.18a40.37,40.37,0,0,1-1.25,5.51c-1.56,5-4.18,8.36-9,8-2.41-2.64,2.45-2.67,3.08-4.62.38-1.26.76-2.63,1.12-4.09s.72-3,1-4.64a29.61,29.61,0,0,0,.88-5c.26-1.17.48-4.44.65-5.31a47.4,47.4,0,0,0,.34-5.43c0-1.78,0-3.19-.05-5.42A52.73,52.73,0,0,0,63.11,48a34.2,34.2,0,0,0-2.7-9.46A72.48,72.48,0,0,1,65,30.19q1.24-2,2.51-4a3.49,3.49,0,0,1,1.25-1.74c.42-.12.83-1,1.23-2.27.4-2.36.79-1.53,1.18-2.32.38-.37.76-1.59,1.12-1.87.36-.64.71-2.49,1-2.24.33-1.35.65-2.4.94-2.26a19.81,19.81,0,0,1,.84-2.89,10.9,10.9,0,0,0,.7-2.06c1-.7,2.23-1.18,3.34,1a10.6,10.6,0,0,1,1.56,1.88c.47.76.9.64,1.24,2.34s.6,1.16.74,2.47a6.73,6.73,0,0,1,0,2.28A10.94,10.94,0,0,1,81.07,22a8.25,8.25,0,0,1-3.27,3.19,16.52,16.52,0,0,1-4.13,3A5.43,5.43,0,0,0,69.41,31a43.15,43.15,0,0,0-3.64,2.69,9.68,9.68,0,0,0-2.28,2.57c2,3.6,6.18,5.1,6.16,10.77a39.21,39.21,0,0,0,9.7-4.21c1.64-.93,3.28-2.76,4.94-2.88,1.65-.55,3.31-2.46,5-2.81,1.67-.72,3.35-1.38,5-2.29,1.68-.23,3.38-2.19,5.08-1.33a16,16,0,0,1,5.12.07A15.56,15.56,0,0,1,109.66,35.51Z"/><path class="c" d="M28.86,28.58c.37,2-10.61,9.6-13.08,3.85C20.19,31.2,25,30.38,28.86,28.58Z"/><path class="c" d="M.38,74A132.08,132.08,0,0,0,15.06,69.2q2.34-.9,4.65-1.84a6.12,6.12,0,0,0,4.59-1.9c1.52.14,3-.68,4.57-1.91,1.53.31,3.06-1.16,4.61-1.88,0-1.53-.62-3.29-1.67-3.65-1-1.52-2.49-.75-4.08-.72-1.59-.47-3.33.16-4.94.26-1.62.55-3.12-.25-4.25-.71a4.08,4.08,0,0,1-2-3.64c1.79-.33,3.59,1,5.33-.64,1.75.06,3.45-.91,5.06-1.51,1.6-1.08,3.12-.08,4.5-2.27,1.39-1.48,2.64-1.86,3.71-2.94C38.37,42.6,40,38.5,38.86,34c-2.57,3-4.66,6.49-7.23,9.5a26.25,26.25,0,0,1-2.77,2.81c-1.93-.32-3.43-.27-4.51-.89a5.46,5.46,0,0,1-2-3.38,7.63,7.63,0,0,1,.38-4.19c10.13,5.93,15-13,24.63-3.08.17.59,0,1.51.77,1.54-2.08,4.58-6.19,7.15-10,10,2.59,1.76,8.22-5.49,11.55-.77-1.43,2.67-4.08,4.13-6.87,5.44-1.4.66-2.83,1.28-4.17,2A6.79,6.79,0,0,0,35,55.51c1.15.71,2.47,2.24,3.87,1.9a12.47,12.47,0,0,0,4.36-.6c1.5-.43,3-1,4.44-1.33a8.8,8.8,0,0,1,4.07-.25A5.93,5.93,0,0,1,55,57.82c-.85,1.36-1.89,2.26-3.05,2.11a21.68,21.68,0,0,1-3.7.55,26.16,26.16,0,0,0-3.78.37c-1.21-.12-2.35,1.12-3.32,1.59v5.39A5.61,5.61,0,0,0,44.94,70c1.51-.19,3.16,1,4.66,1.31a3.86,3.86,0,0,1,3.71,2.25,6.79,6.79,0,0,1,.94,5c-1.36.18-2.53-.66-3.6-1.39-1.07.32-2-1-2.95-2.06A16.81,16.81,0,0,1,45,72.9c-.93-.34-1.91-2.22-3-2a28,28,0,0,1,0,6.34c-.23,3.53-.68,3.63-1.3,6.1a19,19,0,0,1-2.37,4.89A7.36,7.36,0,0,1,35.12,91c-1.17,1.44-2.43.52-3.75-.33a45,45,0,0,1-4.05-4.36c.91-1.27,2.08-.51,3.3-.43s2.49,1.09,3.63-.34V71.68a8.08,8.08,0,0,0-3.95,2.16,16.92,16.92,0,0,0-2.82,3.74C26.67,78.83,26,81,25.25,81.87c-.71.47-1.41,2.5-2.19,3.76-.78,1.47-1.64,2.36-2.67,2.21-1.67-.3-2.28-2.4-2.36-3.12a11,11,0,0,1,.81-4.47c.44-1.63.88-2.37.78-3.19A4.19,4.19,0,0,0,24,75.84a22,22,0,0,0,3.55-2c1.11-.75,2.16-1.56,3.25-2.33a26.06,26.06,0,0,1,3.47-2.11,5.57,5.57,0,0,0-.06-2.26,4.29,4.29,0,0,0-.71-1.59c-1.63.58-3.18,1.1-4.69,1.63-1.51,1.24-3,1.59-4.43,2.5C17.1,74.23,10.24,80,.38,74.75Z"/><path class="a" d="M12.86,143v-1.14a7.6,7.6,0,0,0,1.94-.21.69.69,0,0,0,.28-.36,9.18,9.18,0,0,0,.18-2.28c.05-2.17.08-3.8.08-4.9l0-5.72a11.68,11.68,0,0,0-.15-2.63.55.55,0,0,0-.25-.29,7.88,7.88,0,0,0-2.05-.31V124c1.41,0,2.45.07,3.13.07s1.6,0,2.56-.07q3.12,4,7.06,8.65c1.75,2.08,3.26,3.79,4.53,5.15v-5.37c0-2,0-3.79-.07-5.26a4.92,4.92,0,0,0-.22-1.61.47.47,0,0,0-.3-.24q-.21-.06-1.89-.18V124c1,0,2,.07,2.93.07,1.33,0,2.54,0,3.62-.07v1.14a9,9,0,0,0-1.82.21.73.73,0,0,0-.28.19.76.76,0,0,0-.16.31,12.86,12.86,0,0,0-.11,2.09l-.05,5.41,0,5.45q0,2.19.09,4.38l-.17.19c-1.1-.2-1.87-.33-2.33-.39q-3.48-3.86-8.4-9.68c-1.66-2-3-3.62-4-5v5.26c0,1.43,0,3.16.07,5.17a11.76,11.76,0,0,0,.19,2.57.41.41,0,0,0,.2.23,7.45,7.45,0,0,0,1.95.27V143c-1.45-.07-2.5-.1-3.12-.1S14.58,142.89,12.86,143Z"/><path class="a" d="M52.07,140.34l.39.4-.6,1.29a7.62,7.62,0,0,1-2.09.91,9.18,9.18,0,0,1-2.38.3,6.24,6.24,0,0,1-4.64-1.71,6.51,6.51,0,0,1-1.7-4.81,8.88,8.88,0,0,1,.5-3.25,3.85,3.85,0,0,1,1.33-1.74A14.8,14.8,0,0,1,45,130.42a5.67,5.67,0,0,1,2.66-.62A5.39,5.39,0,0,1,51.34,131a5,5,0,0,1,1.45,4c0,.23,0,.57,0,1l-2.22.41q-1,.06-3,.06H44.62A5.45,5.45,0,0,0,46,140.05a4.17,4.17,0,0,0,3,1.18,5.3,5.3,0,0,0,1.53-.23A6.6,6.6,0,0,0,52.07,140.34Zm-7.53-5.24c.81.07,1.62.11,2.43.11s1.46,0,2.25-.11v-.64a3.93,3.93,0,0,0-.61-2.44,2,2,0,0,0-1.65-.76,2.22,2.22,0,0,0-1.26.36,2.1,2.1,0,0,0-.78,1A9.89,9.89,0,0,0,44.54,135.1Z"/><path class="a" d="M58.94,131.2v-1.11c1.12.07,2.53.1,4.25.1,1.24,0,2.36,0,3.34-.1v1.11l-.88,0a2.08,2.08,0,0,0-.89.14.43.43,0,0,0-.18.38c0,.1.16.77.47,2l1.33,4.88,2.71-6c.62-1.38,1-2.37,1.27-3h1.43q.92,2.53,3.83,8.94l1.2-3.61a18.41,18.41,0,0,0,.91-3.23.47.47,0,0,0-.26-.45,8.81,8.81,0,0,0-1.69-.18v-1.11c1.28,0,2.28.07,3,.07s1.66,0,2.64-.07v1.11a3.94,3.94,0,0,0-1.3.18.89.89,0,0,0-.32.38,46.24,46.24,0,0,0-1.83,4.8c-.69,2-1.37,4.12-2.06,6.4H73.68q-1.52-3.87-3.69-8.52-2.35,4.8-3.8,8.52H64c-.39-1.64-1-3.86-1.79-6.64s-1.27-4.3-1.4-4.56a.8.8,0,0,0-.29-.33A5.14,5.14,0,0,0,58.94,131.2Z"/><path class="a" d="M103.45,143v-1.14a10.16,10.16,0,0,0,1.61-.13,1,1,0,0,0,.55-.23,1.08,1.08,0,0,0,.25-.57c.06-.39.11-1.81.16-4.27,0-1.75,0-3.53,0-5.35,0-3.58,0-5.4,0-5.47s-.35-.1-1-.1c-1.26,0-2.34,0-3.24.1a3.77,3.77,0,0,0-.89.14.44.44,0,0,0-.16.24c0,.11-.11.9-.23,2.37H99.39c0-1.73,0-3.21-.13-4.46l.14-.11c2.85.13,5.61.2,8.3.2s5.67-.07,9-.2l.15.22q-.25,1.86-.36,4.35h-1.13a12.64,12.64,0,0,0-.24-2.47.62.62,0,0,0-.43-.21,35,35,0,0,0-4.3-.17c-.19,0-.29,0-.33.08a2.33,2.33,0,0,0,0,.72l-.08,9.09q0,4,.06,4.86c0,.6.16,1,.33,1.09a10.35,10.35,0,0,0,2.13.28V143c-1.32-.07-2.73-.1-4.22-.1C106.26,142.86,104.67,142.89,103.45,143Z"/><path class="a" d="M135.52,141.85V143l-1.05,0c-.55,0-1.1,0-1.65,0-.85,0-1.66,0-2.42.08l-.13-.15.13-1.85-2.82,2.11a6.36,6.36,0,0,1-1.33.17,2.85,2.85,0,0,1-2.22-.85,3.57,3.57,0,0,1-.78-2.49,3.39,3.39,0,0,1,1.06-2.84c.92-.72,3-1.37,6.09-1.93a4.09,4.09,0,0,0-.55-2.33,2.67,2.67,0,0,0-2.29-1,3.27,3.27,0,0,0-.75.09,3.49,3.49,0,0,0-.78.28l-.6,1.44-.94-.23,0-.6v-.6l0-.54a18.53,18.53,0,0,1,3-1.61,5.57,5.57,0,0,1,1.84-.24,6.07,6.07,0,0,1,2.6.48,3.18,3.18,0,0,1,1.46,1.31,5.12,5.12,0,0,1,.46,2.41q0,.66-.06,2.37c0,1.18-.05,2.12-.05,2.84a13,13,0,0,0,.09,2.06.55.55,0,0,0,.27.33A5,5,0,0,0,135.52,141.85Zm-5.12-5.56a7.86,7.86,0,0,0-3.08,1.12,2,2,0,0,0-.72,1.62,1.81,1.81,0,0,0,.46,1.3,1.54,1.54,0,0,0,1.16.48,3.11,3.11,0,0,0,2.18-1.21Z"/><path class="a" d="M142,143v-1.11a6.51,6.51,0,0,0,1.76-.19c.16-.09.26-.34.31-.76.07-.57.1-1.82.1-3.77,0-.83,0-1.61,0-2.33l0-1.58a1.63,1.63,0,0,0-.17-1A1.48,1.48,0,0,0,143,132l-1,0v-1a16.74,16.74,0,0,0,5.37-1.16l.33.27c-.13,1.72-.2,4.24-.2,7.54a31.2,31.2,0,0,0,.1,3.45.76.76,0,0,0,.24.54,6.51,6.51,0,0,0,1.77.25V143c-1.62-.06-2.88-.08-3.77-.08C145.33,142.88,144.05,142.9,142,143Zm3.76-19.63a2.1,2.1,0,0,1,2.09,2.11,2,2,0,0,1-.61,1.48,2.1,2.1,0,0,1-3,0,2.11,2.11,0,0,1,0-3A2,2,0,0,1,145.73,123.33Z"/><path class="a" d="M156,132v-1a22,22,0,0,0,3.93-.64l1.44-.45c.13,0,.19.11.19.32s0,.42,0,.73l0,1.24,2.19-1.73a3.71,3.71,0,0,1,2.3-.56,4.9,4.9,0,0,1,3.67,1.42,5.21,5.21,0,0,1,1.38,3.81,8.34,8.34,0,0,1-.35,2.37,6.94,6.94,0,0,1-.81,1.86,8.36,8.36,0,0,1-1.67,1.61c-1.36,1.09-2.17,1.71-2.43,1.87a3.76,3.76,0,0,1-1.86.44,5,5,0,0,1-1.21-.15,5.19,5.19,0,0,1-1.21-.44l.06,4.11a3.35,3.35,0,0,0,.31,1.74,4.26,4.26,0,0,0,2,.25v1.11c-1.4-.06-2.62-.08-3.65-.08-2,0-3.39,0-4.2.08v-1.11a6.18,6.18,0,0,0,1.65-.16.55.55,0,0,0,.21-.26,16.16,16.16,0,0,0,.17-2.77c.06-2.3.08-4,.08-5.12l0-5.37a13.52,13.52,0,0,0-.15-2.7.51.51,0,0,0-.21-.26A6.36,6.36,0,0,0,156,132Zm5.48,8a4.46,4.46,0,0,0,1.33,1.16,3.19,3.19,0,0,0,1.55.39,2.71,2.71,0,0,0,2.28-1.19,6.54,6.54,0,0,0,.89-3.85,5,5,0,0,0-.91-3.25,2.84,2.84,0,0,0-2.31-1.11,3.32,3.32,0,0,0-1.41.34,5.54,5.54,0,0,0-1.42,1Z"/><path class="a" d="M189.32,140.34l.39.4L189.1,142a7.49,7.49,0,0,1-2.09.91,9.05,9.05,0,0,1-2.37.3,6.25,6.25,0,0,1-4.65-1.71,6.55,6.55,0,0,1-1.7-4.81,9.1,9.1,0,0,1,.5-3.25,3.92,3.92,0,0,1,1.33-1.74,14.8,14.8,0,0,1,2.14-1.31,5.67,5.67,0,0,1,2.66-.62,5.44,5.44,0,0,1,3.67,1.24,5,5,0,0,1,1.44,4c0,.23,0,.57-.05,1l-2.22.41q-1,.06-3,.06h-2.93a5.45,5.45,0,0,0,1.4,3.52,4.14,4.14,0,0,0,3,1.18,5.41,5.41,0,0,0,1.53-.23A7,7,0,0,0,189.32,140.34Zm-7.54-5.24c.81.07,1.62.11,2.44.11s1.46,0,2.24-.11l0-.64a4,4,0,0,0-.61-2.44,2,2,0,0,0-1.65-.76,2.17,2.17,0,0,0-1.26.36,2.12,2.12,0,0,0-.79,1A9.89,9.89,0,0,0,181.78,135.1Z"/><path class="a" d="M196.93,143v-1.11a6.37,6.37,0,0,0,1.76-.19c.16-.09.26-.34.31-.76.07-.57.11-1.82.11-3.77,0-.83,0-1.61-.05-2.33l0-1.58a1.74,1.74,0,0,0-.16-1,1.55,1.55,0,0,0-.92-.21l-1,0v-1a16.74,16.74,0,0,0,5.37-1.16l.34.27c-.14,1.72-.21,4.24-.21,7.54a31.2,31.2,0,0,0,.1,3.45.76.76,0,0,0,.25.54,6.4,6.4,0,0,0,1.76.25V143c-1.62-.06-2.88-.08-3.77-.08C200.29,142.88,199,142.9,196.93,143Zm3.76-19.63a2.11,2.11,0,1,1-1.5,3.59,2.11,2.11,0,0,1,0-3A2,2,0,0,1,200.69,123.33Z"/><path class="a" d="M241,140l.34.31a13.07,13.07,0,0,0-.63,1.38,12.83,12.83,0,0,1-3,1.17,14.54,14.54,0,0,1-3.35.35,13.1,13.1,0,0,1-6-1.25,8.93,8.93,0,0,1-3.77-3.5,10.08,10.08,0,0,1-1.32-5.18,8.86,8.86,0,0,1,3-6.89c2-1.79,4.73-2.69,8.23-2.69A19.94,19.94,0,0,1,238,124a20.41,20.41,0,0,1,3.41,1l.09.2a8,8,0,0,0-.34,1.41c-.12.78-.22,1.76-.28,2.92h-1.14a17.33,17.33,0,0,0-.16-2.34c-.05-.15-.3-.38-.74-.72a5.23,5.23,0,0,0-1.79-.83,9.34,9.34,0,0,0-2.5-.32,6.76,6.76,0,0,0-5.15,2,7.7,7.7,0,0,0-1.91,5.57,8.62,8.62,0,0,0,2.3,6.26,7.68,7.68,0,0,0,5.83,2.22,11.46,11.46,0,0,0,2.68-.3A12.65,12.65,0,0,0,241,140Z"/><path class="a" d="M248.05,143v-1.11a6.37,6.37,0,0,0,1.76-.19c.16-.09.26-.34.31-.76.07-.57.11-1.82.11-3.77,0-.83,0-1.61,0-2.33l0-1.58a1.74,1.74,0,0,0-.16-1,1.55,1.55,0,0,0-.92-.21l-1,0v-1a16.74,16.74,0,0,0,5.37-1.16l.34.27c-.14,1.72-.21,4.24-.21,7.54a31.2,31.2,0,0,0,.1,3.45.76.76,0,0,0,.25.54,6.4,6.4,0,0,0,1.76.25V143c-1.62-.06-2.88-.08-3.77-.08C251.41,142.88,250.13,142.9,248.05,143Zm3.76-19.63a2.11,2.11,0,1,1-1.5,3.59,2.11,2.11,0,0,1,0-3A2,2,0,0,1,251.81,123.33Z"/><path class="a" d="M261.72,132.08l1.8-1.17c0-1.6-.07-3-.14-4.2a23.48,23.48,0,0,0,3.49-1.38l.41.31a46.2,46.2,0,0,0-.41,5.27,7.46,7.46,0,0,0,1.23.1,14.29,14.29,0,0,0,2.48-.19l.12.09-.12.48a11.1,11.1,0,0,0-.3,1.4c-1-.08-1.83-.11-2.33-.11s-.73,0-1.08,0c0,.91,0,1.72,0,2.41a24.42,24.42,0,0,0,.27,5.18c.18.41.6.62,1.28.62a3.72,3.72,0,0,0,.64-.06c.23,0,.48-.11.74-.19l.23.51c-.54.6-1.07,1.23-1.58,1.88l-.92.12a7.23,7.23,0,0,1-.77,0,4.15,4.15,0,0,1-1.9-.39,2.52,2.52,0,0,1-1.11-1,3.89,3.89,0,0,1-.35-1.85c0-.44,0-1.57.07-3.42.05-1.61.07-2.89.07-3.83l-.69,0a8.72,8.72,0,0,0-1.11.09Z"/><path class="a" d="M275.67,131.2v-1.11c2.08.06,3.4.08,4,.08.8,0,1.94,0,3.4-.08v1.11a5.63,5.63,0,0,0-1.5.18.45.45,0,0,0-.23.43,24.64,24.64,0,0,0,1.32,3.75l1.48,3.73,1.25-2.95a23.67,23.67,0,0,0,1.69-4.57.4.4,0,0,0-.23-.4,6.06,6.06,0,0,0-1.46-.17v-1.11l.86,0,1.81,0c.32,0,1.17,0,2.54-.08v1.11a2.42,2.42,0,0,0-1.08.21.85.85,0,0,0-.31.29c-.15.2-.71,1.44-1.71,3.73L285,141.19l-2.34,5.33a9.78,9.78,0,0,1-1.43,2.29,4.15,4.15,0,0,1-1.37,1,4.25,4.25,0,0,1-1.67.32,4.76,4.76,0,0,1-2-.46,21.06,21.06,0,0,0,.48-2.6l.36-.12a2.44,2.44,0,0,0,1.86.88,2,2,0,0,0,1.47-.58,14.14,14.14,0,0,0,1.81-3.37l-3-7.65-1.67-4.11a1.41,1.41,0,0,0-.46-.65A4.31,4.31,0,0,0,275.67,131.2Z"/><path class="a" d="M321.44,136.3v-1.09c1.64,0,3.11.06,4.4.06s2.47,0,3.85-.06v.86a10.23,10.23,0,0,0-1.13.45,20.06,20.06,0,0,0-.17,2.33c0,.46.06,1.37.17,2.73a31.23,31.23,0,0,1-4.49,1.31,20.73,20.73,0,0,1-3.74.34c-3.48,0-6.2-.91-8.17-2.71a9.84,9.84,0,0,1,.06-14.13q3-2.67,8.65-2.67a23.54,23.54,0,0,1,3.82.31,18.77,18.77,0,0,1,3.48,1l.12.2a28.86,28.86,0,0,0-.58,4.28h-1.14a15.07,15.07,0,0,0-.18-2.28,5.4,5.4,0,0,0-2.22-1.5,9.41,9.41,0,0,0-3.21-.5,7.38,7.38,0,0,0-5.54,2.12,7.88,7.88,0,0,0-2.07,5.78,9,9,0,0,0,2.17,6.3,7,7,0,0,0,5.35,2.39,9.09,9.09,0,0,0,3.6-.83,19.66,19.66,0,0,0,.11-2,5.27,5.27,0,0,0-.24-2.3A9.51,9.51,0,0,0,321.44,136.3Z"/><path class="a" d="M337.1,136.53a6,6,0,0,1,6.7-6.73q3.38,0,4.94,1.53t1.55,4.83a7.22,7.22,0,0,1-1.79,5.24,6.64,6.64,0,0,1-5,1.84,6.26,6.26,0,0,1-4.77-1.72A7,7,0,0,1,337.1,136.53Zm3.75-.93a10.59,10.59,0,0,0,.92,5.14,2.36,2.36,0,0,0,2.15,1.18,2.2,2.2,0,0,0,1.94-1,6.88,6.88,0,0,0,.68-3.65c0-2.42-.28-4.09-.83-5a2.36,2.36,0,0,0-2.16-1.11,2.31,2.31,0,0,0-2,1A6.21,6.21,0,0,0,340.85,135.6Z"/><path class="a" d="M356.44,131.2v-1.11l3.48.08c1.17,0,2.42,0,3.76-.08v1.11a6.28,6.28,0,0,0-1.5.15.38.38,0,0,0-.23.37,2.72,2.72,0,0,0,.13.63l.81,2.26,1.8,4.68,1.77-4.15a15.71,15.71,0,0,0,1.24-3.4.38.38,0,0,0-.23-.38,6.85,6.85,0,0,0-1.56-.16v-1.11c1.18.06,2.14.08,2.88.08s1.67,0,2.59-.08v1.11a2.54,2.54,0,0,0-1.36.28,18.39,18.39,0,0,0-1.56,3q-1.29,2.77-3.66,8.46h-2.38c-.59-1.63-1.49-4-2.68-6.94-.78-2-1.31-3.24-1.58-3.84a1.8,1.8,0,0,0-.52-.75A3.1,3.1,0,0,0,356.44,131.2Z"/><path class="a" d="M388.86,140.34l.39.4-.6,1.29a7.62,7.62,0,0,1-2.09.91,9.18,9.18,0,0,1-2.38.3,6.28,6.28,0,0,1-4.65-1.71,6.55,6.55,0,0,1-1.69-4.81,8.88,8.88,0,0,1,.5-3.25,3.85,3.85,0,0,1,1.33-1.74,14.8,14.8,0,0,1,2.14-1.31,5.63,5.63,0,0,1,2.65-.62,5.42,5.42,0,0,1,3.67,1.24,5,5,0,0,1,1.45,4c0,.23,0,.57-.06,1l-2.21.41c-.68,0-1.68.06-3,.06h-2.93a5.45,5.45,0,0,0,1.39,3.52,4.15,4.15,0,0,0,3,1.18,5.3,5.3,0,0,0,1.53-.23A6.6,6.6,0,0,0,388.86,140.34Zm-7.53-5.24c.81.07,1.62.11,2.43.11s1.46,0,2.25-.11v-.64a3.93,3.93,0,0,0-.61-2.44,2,2,0,0,0-1.65-.76,2.2,2.2,0,0,0-1.26.36,2.1,2.1,0,0,0-.78,1A9.89,9.89,0,0,0,381.33,135.1Z"/><path class="a" d="M395.9,143v-1.11a8,8,0,0,0,1.57-.16.59.59,0,0,0,.26-.26,4.58,4.58,0,0,0,.18-1.44c0-1.32,0-2.52,0-3.6,0-2.09,0-3.32-.08-3.71a.65.65,0,0,0-.24-.48,5.55,5.55,0,0,0-1.74-.2v-1a20.32,20.32,0,0,0,3.9-.64l1.39-.52c.13,0,.19.08.19.25v.19c0,.57,0,1.39,0,2.45a19.52,19.52,0,0,0,1.53-1.68,3.64,3.64,0,0,1,1.08-1,2.7,2.7,0,0,1,1.23-.23,3,3,0,0,1,.88.14c-.08.91-.13,2.13-.16,3.69l-.61.21a2.06,2.06,0,0,0-.68-.74,2,2,0,0,0-1-.21,2.29,2.29,0,0,0-1.39.42,1.9,1.9,0,0,0-.75,1,18.42,18.42,0,0,0-.11,2.77,39.71,39.71,0,0,0,.1,4,.69.69,0,0,0,.25.51,5.76,5.76,0,0,0,2,.29V143l-1.52,0c-1,0-1.8,0-2.5,0s-1.44,0-2.33,0Z"/><path class="a" d="M412.16,143v-1.11a4.46,4.46,0,0,0,1.66-.24,1,1,0,0,0,.23-.7c.06-.91.08-2.52.08-4.82,0-1.14,0-2.12-.05-2.94a2.66,2.66,0,0,0-.11-.89.35.35,0,0,0-.21-.16,11.15,11.15,0,0,0-1.6-.1v-1a13.07,13.07,0,0,0,2.29-.32,17,17,0,0,0,2.61-.72l.36-.12c.13,0,.19.1.19.31v.12c0,.25,0,.9,0,2l2.09-1.76a2.08,2.08,0,0,1,.81-.46,5.53,5.53,0,0,1,1.45-.16,4.89,4.89,0,0,1,2.34.49,3.11,3.11,0,0,1,1.34,1.37,6.61,6.61,0,0,1,.42,2.72c0,.54,0,1.17,0,1.88,0,1.47-.07,2.73-.07,3.8a3.58,3.58,0,0,0,.15,1.26.67.67,0,0,0,.31.33,9.49,9.49,0,0,0,1.48.2V143l-1.67-.06-1.06,0-2.79.08-.15-.18a39.57,39.57,0,0,0,.35-5.28,12.25,12.25,0,0,0-.42-4.24,2,2,0,0,0-2-1,2.75,2.75,0,0,0-1.6.47,2.26,2.26,0,0,0-.88,1,5.51,5.51,0,0,0-.09,1.37c0,3.27,0,5.14,0,5.62s.1.77.23.87a4.32,4.32,0,0,0,1.81.29V143c-1.57-.06-2.89-.08-4-.08C415,142.88,413.86,142.9,412.16,143Z"/><path class="a" d="M434.14,143v-1.11a5.71,5.71,0,0,0,1.59-.18.69.69,0,0,0,.25-.47,26.89,26.89,0,0,0,.11-3.14,51.78,51.78,0,0,0-.14-5.65c-.07-.25-.38-.37-.94-.38l-.87,0v-1a24.85,24.85,0,0,0,2.83-.45,12.61,12.61,0,0,0,2.12-.65,1.08,1.08,0,0,1,.28-.06c.13,0,.19.11.19.33s0,.41,0,.69c0,.13,0,.36,0,.68V132l2.21-1.67a3.57,3.57,0,0,1,2.14-.52,4.07,4.07,0,0,1,2.29.56,3.45,3.45,0,0,1,1.3,1.79l2.3-1.83a2.91,2.91,0,0,1,1.85-.52,4.15,4.15,0,0,1,3.13,1,4.83,4.83,0,0,1,1,3.39l0,1.12c0,1.25-.05,2.36-.05,3.34a15.84,15.84,0,0,0,.12,2.51.74.74,0,0,0,.27.44,5.29,5.29,0,0,0,1.53.21V143c-1.12-.06-2.1-.08-2.94-.08s-1.64,0-2.51.08l-.17-.26a46.33,46.33,0,0,0,.35-5.69c0-2.19-.16-3.56-.5-4.11a2,2,0,0,0-1.8-.82,2.64,2.64,0,0,0-1.48.42,2,2,0,0,0-.84,1,10.87,10.87,0,0,0-.14,2.37c0,2.39,0,4,.1,4.95a1.12,1.12,0,0,0,.25.78,4.93,4.93,0,0,0,1.72.28V143c-1.18-.06-2.34-.08-3.47-.08-1.42,0-2.69,0-3.82.08v-1.11c.89,0,1.42-.13,1.57-.39a12.41,12.41,0,0,0,.23-3.4,38.9,38.9,0,0,0-.13-4.27,2,2,0,0,0-.66-1.27,2.19,2.19,0,0,0-1.44-.44,2.55,2.55,0,0,0-1.23.31,2.84,2.84,0,0,0-.94.89,1.71,1.71,0,0,0-.21,1v.51c0,.26,0,1,0,2.13v1.6a25.22,25.22,0,0,0,.08,2.73.55.55,0,0,0,.22.39,4.93,4.93,0,0,0,1.48.25V143c-1.08-.06-2.26-.08-3.55-.08C437.33,142.88,436.12,142.9,434.14,143Z"/><path class="a" d="M475,140.34l.39.4-.6,1.29a7.56,7.56,0,0,1-2.1.91,9.05,9.05,0,0,1-2.37.3,6.25,6.25,0,0,1-4.65-1.71,6.55,6.55,0,0,1-1.7-4.81,9.1,9.1,0,0,1,.5-3.25,3.94,3.94,0,0,1,1.34-1.74,14.67,14.67,0,0,1,2.13-1.31,5.69,5.69,0,0,1,2.66-.62,5.44,5.44,0,0,1,3.67,1.24,5,5,0,0,1,1.45,4c0,.23,0,.57-.06,1l-2.21.41q-1,.06-3,.06h-2.94a5.45,5.45,0,0,0,1.4,3.52,4.14,4.14,0,0,0,3,1.18,5.41,5.41,0,0,0,1.53-.23A7,7,0,0,0,475,140.34Zm-7.54-5.24c.82.07,1.63.11,2.44.11s1.46,0,2.24-.11l0-.64a3.93,3.93,0,0,0-.61-2.44,2,2,0,0,0-1.65-.76,2.17,2.17,0,0,0-1.26.36,2.1,2.1,0,0,0-.78,1A9.76,9.76,0,0,0,467.46,135.1Z"/><path class="a" d="M482.53,143v-1.11a4.46,4.46,0,0,0,1.66-.24,1,1,0,0,0,.23-.7c.06-.91.08-2.52.08-4.82,0-1.14,0-2.12-.05-2.94a2.66,2.66,0,0,0-.11-.89.35.35,0,0,0-.21-.16,11.15,11.15,0,0,0-1.6-.1v-1a12.87,12.87,0,0,0,2.28-.32,16.39,16.39,0,0,0,2.61-.72l.37-.12c.13,0,.19.1.19.31v.12c0,.25,0,.9,0,2l2.09-1.76a2.08,2.08,0,0,1,.81-.46,5.53,5.53,0,0,1,1.45-.16,4.89,4.89,0,0,1,2.34.49,3.11,3.11,0,0,1,1.34,1.37,6.61,6.61,0,0,1,.42,2.72c0,.54,0,1.17,0,1.88,0,1.47-.07,2.73-.07,3.8a3.58,3.58,0,0,0,.15,1.26.59.59,0,0,0,.31.33,9.49,9.49,0,0,0,1.48.2V143l-1.67-.06-1.07,0-2.78.08-.15-.18a39.57,39.57,0,0,0,.35-5.28,12.25,12.25,0,0,0-.42-4.24,2,2,0,0,0-2-1,2.75,2.75,0,0,0-1.6.47,2.26,2.26,0,0,0-.88,1,5.51,5.51,0,0,0-.09,1.37c0,3.27,0,5.14,0,5.62s.1.77.23.87a4.32,4.32,0,0,0,1.81.29V143c-1.57-.06-2.9-.08-4-.08C485.39,142.88,484.22,142.9,482.53,143Z"/><path class="a" d="M504,132.08l1.8-1.17c0-1.6-.07-3-.14-4.2a23.48,23.48,0,0,0,3.49-1.38l.41.31a48.63,48.63,0,0,0-.41,5.27,7.46,7.46,0,0,0,1.23.1,14.29,14.29,0,0,0,2.48-.19l.12.09-.12.48a13.2,13.2,0,0,0-.3,1.4c-1-.08-1.83-.11-2.33-.11s-.73,0-1.08,0c0,.91,0,1.72,0,2.41a24.42,24.42,0,0,0,.27,5.18c.18.41.61.62,1.28.62a3.72,3.72,0,0,0,.64-.06c.23,0,.48-.11.74-.19l.23.51c-.54.6-1.07,1.23-1.58,1.88l-.92.12a7.23,7.23,0,0,1-.77,0,4.15,4.15,0,0,1-1.9-.39,2.52,2.52,0,0,1-1.11-1,3.89,3.89,0,0,1-.35-1.85c0-.44,0-1.57.07-3.42.05-1.61.07-2.89.07-3.83l-.69,0a8.72,8.72,0,0,0-1.11.09Z"/></svg>